<?xml version="1.0" encoding="UTF-8" standalone="no"?>
<!-- Created with Inkscape (http://www.inkscape.org/) -->

<svg
   width="42.042976mm"
   height="51.927982mm"
   viewBox="0 0 42.042976 51.927982"
   version="1.1"
   id="svg1"
   xmlns="http://www.w3.org/2000/svg"
   xmlns:svg="http://www.w3.org/2000/svg">
  <defs
     id="defs1" />
  <g
     id="layer1"
     transform="translate(-275.4766,-126.2608)">
    <g
       id="g121"
       transform="translate(114.09477,88.411102)">
      <path
         style="-inkscape-font-specification:'Poppins Bold';fill:#fffb12;fill-opacity:1;stroke-width:1.25608;stroke-linecap:round;stroke-linejoin:round;paint-order:stroke fill markers"
         d="m 161.38181,74.65456 q 0,-0.80352 0.36237,-1.44161 0.36237,-0.64596 0.9847,-1.00834 0.63022,-0.36237 1.39435,-0.36237 0.89805,0 1.56765,0.43327 0.6696,0.43327 0.97683,1.22892 h -0.85866 q -0.22846,-0.4963 -0.66173,-0.76414 -0.42539,-0.26784 -1.02409,-0.26784 -0.57507,0 -1.03197,0.26784 -0.45691,0.26784 -0.71687,0.76414 -0.25996,0.48841 -0.25996,1.15013 0,0.65385 0.25996,1.15014 0.25996,0.48841 0.71687,0.75626 0.4569,0.26784 1.03197,0.26784 0.5987,0 1.02409,-0.25997 0.43327,-0.26784 0.66173,-0.76413 h 0.85866 q -0.30723,0.78777 -0.97683,1.22104 -0.6696,0.42539 -1.56765,0.42539 -0.76413,0 -1.39435,-0.35449 -0.62233,-0.36238 -0.9847,-1.00047 -0.36237,-0.63809 -0.36237,-1.44161 z m 8.23214,2.8202 q -0.60658,0 -1.10288,-0.27572 -0.48841,-0.27571 -0.77201,-0.77988 -0.27571,-0.51205 -0.27571,-1.18165 0,-0.66172 0.28359,-1.16589 0.29148,-0.51205 0.78777,-0.77989 0.49629,-0.27572 1.11075,-0.27572 0.61445,0 1.11074,0.27572 0.4963,0.26784 0.77989,0.77201 0.29147,0.50417 0.29147,1.17377 0,0.6696 -0.29935,1.18165 -0.29147,0.50417 -0.79564,0.77988 -0.50417,0.27572 -1.11862,0.27572 z m 0,-0.63021 q 0.386,0 0.72474,-0.18119 0.33874,-0.18118 0.54356,-0.54355 0.21269,-0.36238 0.21269,-0.8823 0,-0.51993 -0.20482,-0.8823 -0.20481,-0.36237 -0.53568,-0.53568 -0.33086,-0.18118 -0.71686,-0.18118 -0.39388,0 -0.72475,0.18118 -0.32298,0.17331 -0.51992,0.53568 -0.19694,0.36237 -0.19694,0.8823 0,0.5278 0.18906,0.89017 0.19694,0.36238 0.51993,0.54356 0.32298,0.17331 0.70899,0.17331 z m 5.26226,-3.83642 q 0.78777,0 1.27618,0.48054 0.48841,0.47266 0.48841,1.37071 v 2.54448 h -0.70898 v -2.44207 q 0,-0.64597 -0.32299,-0.9847 -0.32298,-0.34662 -0.88229,-0.34662 -0.5672,0 -0.90593,0.35449 -0.33087,0.3545 -0.33087,1.03198 v 2.38692 h -0.71686 v -4.31695 h 0.71686 v 0.61446 q 0.2127,-0.33086 0.57507,-0.51205 0.37025,-0.18119 0.8114,-0.18119 z m 3.81278,0.66961 v 2.54448 q 0,0.3151 0.13392,0.44902 0.13392,0.12604 0.46478,0.12604 h 0.5278 v 0.60658 h -0.64597 q -0.5987,0 -0.89805,-0.27571 -0.29935,-0.27572 -0.29935,-0.90593 v -2.54448 h -0.55931 v -0.59083 h 0.55931 V 71.9998 h 0.71687 v 1.08711 h 1.1265 v 0.59083 z m 1.7252,1.55189 q 0,-0.66172 0.26784,-1.15801 0.26785,-0.50417 0.73263,-0.77989 0.47266,-0.27572 1.04772,-0.27572 0.56719,0 0.98471,0.24421 0.41752,0.24421 0.62233,0.61446 v -0.78777 h 0.72475 v 4.31695 h -0.72475 v -0.80352 q -0.21269,0.37813 -0.63809,0.63022 -0.41751,0.2442 -0.97682,0.2442 -0.57507,0 -1.03985,-0.28359 -0.46478,-0.2836 -0.73263,-0.79565 -0.26784,-0.51204 -0.26784,-1.16589 z m 3.65523,0.008 q 0,-0.48841 -0.19694,-0.85079 -0.19694,-0.36237 -0.53568,-0.55143 -0.33086,-0.19694 -0.73262,-0.19694 -0.40176,0 -0.73262,0.18906 -0.33086,0.18906 -0.5278,0.55144 -0.19694,0.36237 -0.19694,0.85078 0,0.49629 0.19694,0.86654 0.19694,0.36238 0.5278,0.55932 0.33086,0.18906 0.73262,0.18906 0.40176,0 0.73262,-0.18906 0.33874,-0.19694 0.53568,-0.55932 0.19694,-0.37025 0.19694,-0.85866 z m 1.67007,-0.008 q 0,-0.66172 0.26784,-1.15801 0.26784,-0.50417 0.73262,-0.77989 0.47266,-0.27572 1.05561,-0.27572 0.50417,0 0.93744,0.23633 0.43327,0.22845 0.66172,0.60658 V 71.5744 h 0.72474 v 5.82946 h -0.72474 v -0.81139 q -0.2127,0.386 -0.63021,0.63809 -0.41752,0.2442 -0.97683,0.2442 -0.57507,0 -1.04773,-0.28359 -0.46478,-0.2836 -0.73262,-0.79565 -0.26784,-0.51204 -0.26784,-1.16589 z m 3.65523,0.008 q 0,-0.48841 -0.19694,-0.85079 -0.19694,-0.36237 -0.53568,-0.55143 -0.33086,-0.19694 -0.73262,-0.19694 -0.40176,0 -0.73262,0.18906 -0.33086,0.18906 -0.52781,0.55144 -0.19694,0.36237 -0.19694,0.85078 0,0.49629 0.19694,0.86654 0.19695,0.36238 0.52781,0.55932 0.33086,0.18906 0.73262,0.18906 0.40176,0 0.73262,-0.18906 0.33874,-0.19694 0.53568,-0.55932 0.19694,-0.37025 0.19694,-0.85866 z m 3.82067,2.23725 q -0.60658,0 -1.10287,-0.27572 -0.48842,-0.27571 -0.77201,-0.77988 -0.27572,-0.51205 -0.27572,-1.18165 0,-0.66172 0.28359,-1.16589 0.29148,-0.51205 0.78777,-0.77989 0.49629,-0.27572 1.11075,-0.27572 0.61445,0 1.11075,0.27572 0.49629,0.26784 0.77988,0.77201 0.29148,0.50417 0.29148,1.17377 0,0.6696 -0.29936,1.18165 -0.29147,0.50417 -0.79564,0.77988 -0.50417,0.27572 -1.11862,0.27572 z m 0,-0.63021 q 0.386,0 0.72474,-0.18119 0.33874,-0.18118 0.54356,-0.54355 0.21269,-0.36238 0.21269,-0.8823 0,-0.51993 -0.20481,-0.8823 -0.20482,-0.36237 -0.53568,-0.53568 -0.33087,-0.18118 -0.71687,-0.18118 -0.39388,0 -0.72474,0.18118 -0.32299,0.17331 -0.51993,0.53568 -0.19694,0.36237 -0.19694,0.8823 0,0.5278 0.18906,0.89017 0.19694,0.36238 0.51993,0.54356 0.32298,0.17331 0.70899,0.17331 z m 3.87579,-3.05653 q 0.18907,-0.37025 0.53568,-0.57507 0.3545,-0.20482 0.85867,-0.20482 v 0.7405 h -0.18907 q -1.20528,0 -1.20528,1.30769 v 2.34754 h -0.71686 v -4.31695 h 0.71686 z m 1.95365,1.44161 q 0,-0.66172 0.26784,-1.15801 0.26785,-0.50417 0.73263,-0.77989 0.47266,-0.27572 1.04772,-0.27572 0.56719,0 0.98471,0.24421 0.41752,0.24421 0.62233,0.61446 v -0.78777 h 0.72475 v 4.31695 h -0.72475 v -0.80352 q -0.21269,0.37813 -0.63809,0.63022 -0.41751,0.2442 -0.97682,0.2442 -0.57507,0 -1.03985,-0.28359 -0.46478,-0.2836 -0.73263,-0.79565 -0.26784,-0.51204 -0.26784,-1.16589 z m 3.65523,0.008 q 0,-0.48841 -0.19694,-0.85079 -0.19694,-0.36237 -0.53568,-0.55143 -0.33086,-0.19694 -0.73262,-0.19694 -0.40176,0 -0.73262,0.18906 -0.33086,0.18906 -0.5278,0.55144 -0.19694,0.36237 -0.19694,0.85078 0,0.49629 0.19694,0.86654 0.19694,0.36238 0.5278,0.55932 0.33086,0.18906 0.73262,0.18906 0.40176,0 0.73262,-0.18906 0.33874,-0.19694 0.53568,-0.55932 0.19694,-0.37025 0.19694,-0.85866 z"
         id="path117"
         aria-label="Contadora&#10;" />
      <path
         style="-inkscape-font-specification:'Poppins Bold';fill:#ffffff;fill-opacity:1;stroke-width:2.07739;stroke-linecap:round;stroke-linejoin:round;paint-order:stroke fill markers"
         d="m 166.91892,84.9832 q 0.79474,0.16937 1.27679,0.79473 0.48206,0.61234 0.48206,1.40708 0,1.14651 -0.80777,1.82399 -0.79474,0.66446 -2.22787,0.66446 h -4.26032 v -9.14601 h 4.11701 q 1.39404,0 2.17575,0.6384 0.79474,0.63839 0.79474,1.73279 0,0.80776 -0.42994,1.34193 -0.41691,0.53417 -1.12045,0.74263 z m -3.30924,-0.75566 h 1.45919 q 0.5472,0 0.83383,-0.23451 0.29965,-0.24754 0.29965,-0.71657 0,-0.46902 -0.29965,-0.71656 -0.28663,-0.24755 -0.83383,-0.24755 h -1.45919 z m 1.64159,3.64798 q 0.56023,0 0.85988,-0.24754 0.31269,-0.26057 0.31269,-0.74262 0,-0.48206 -0.32571,-0.75566 -0.31269,-0.27359 -0.87291,-0.27359 h -1.61554 v 2.01941 z m 11.56932,-1.95427 q 0,0.31268 -0.0391,0.65142 h -5.04203 q 0.0521,0.67748 0.42994,1.04228 0.39086,0.35177 0.95108,0.35177 0.83383,0 1.15954,-0.70354 h 2.37119 q -0.1824,0.71657 -0.66446,1.28982 -0.46902,0.57326 -1.18559,0.89897 -0.71657,0.32571 -1.60251,0.32571 -1.06833,0 -1.90216,-0.45599 -0.83382,-0.456 -1.30285,-1.30285 -0.46902,-0.84686 -0.46902,-1.98034 0,-1.13348 0.45599,-1.98033 0.46903,-0.84685 1.30285,-1.30285 0.83383,-0.45599 1.91519,-0.45599 1.05531,0 1.87611,0.44296 0.82079,0.44297 1.27679,1.26377 0.46903,0.82079 0.46903,1.91519 z m -2.27999,-0.58628 q 0,-0.57326 -0.39086,-0.912 -0.39085,-0.33874 -0.97713,-0.33874 -0.56023,0 -0.95108,0.32571 -0.37783,0.32571 -0.46903,0.92503 z m 5.68041,-1.71977 q 0.39086,-0.59931 0.97714,-0.93805 0.58628,-0.35177 1.30285,-0.35177 v 2.35816 h -0.61234 q -0.83382,0 -1.25073,0.3648 -0.41692,0.35177 -0.41692,1.25073 v 3.37439 h -2.22787 v -7.26991 h 2.22787 z m 7.77801,-1.28982 q 1.2768,0 2.03245,0.83383 0.76868,0.82079 0.76868,2.26695 v 4.2473 h -2.21484 v -3.94764 q 0,-0.7296 -0.37783,-1.13348 -0.37783,-0.40388 -1.01622,-0.40388 -0.6384,0 -1.01623,0.40388 -0.37782,0.40388 -0.37782,1.13348 v 3.94764 h -2.22788 v -7.26991 h 2.22788 v 0.96411 q 0.33874,-0.48205 0.91199,-0.75565 0.57326,-0.28663 1.28982,-0.28663 z m 3.90855,3.7001 q 0,-1.12046 0.41691,-1.96731 0.42994,-0.84685 1.15954,-1.30285 0.7296,-0.45599 1.62856,-0.45599 0.76868,0 1.34194,0.31268 0.58628,0.31268 0.89896,0.82079 v -1.02925 h 2.22788 v 7.26991 h -2.22788 V 88.6442 q -0.32571,0.50812 -0.91199,0.8208 -0.57325,0.31268 -1.34194,0.31268 -0.88593,0 -1.61553,-0.45599 -0.7296,-0.46903 -1.15954,-1.31588 -0.41691,-0.85988 -0.41691,-1.98033 z m 5.44591,0.013 q 0,-0.83382 -0.46902,-1.31587 -0.456,-0.48206 -1.12045,-0.48206 -0.66446,0 -1.13348,0.48206 -0.456,0.46902 -0.456,1.30285 0,0.83382 0.456,1.3289 0.46902,0.48206 1.13348,0.48206 0.66445,0 1.12045,-0.48206 0.46902,-0.48205 0.46902,-1.31588 z m 6.0713,-6.00613 v 9.64109 h -2.22788 v -9.64109 z"
         id="path118"
         aria-label="Bernal&#10;" />
      <path
         style="fill:#ffffff;fill-opacity:1;stroke-width:2.87267;stroke-linecap:square;stroke-linejoin:bevel;paint-order:stroke markers fill"
         d="m 192.25473,37.85231 c 1.68022,4e-4 3.31051,0.57121 4.624,1.61901 0.87092,0.69449 1.57424,1.5762 2.05776,2.57968 0.24046,0.5007 0.42378,1.02676 0.54674,1.56839 0.12364,0.54147 0.18623,1.09512 0.18654,1.65053 -0.003,2.2053 -0.98777,4.29476 -2.68615,5.70145 1.73141,1.98262 2.68569,4.52552 2.68615,7.15773 -6e-5,6.01077 -4.87229,10.88368 -10.88306,10.88458 -0.031,-0.002 -0.0604,-0.003 -0.0908,-0.006 0.031,0.003 0.0604,0.006 0.0908,0.009 h 3.75326 c -0.031,-0.003 -0.0595,-0.006 -0.0892,-0.009 0.031,0.002 0.0595,0.003 0.0892,0.006 6.01117,-6e-5 10.88427,-4.87291 10.88461,-10.88408 -9e-4,-2.6324 -0.95577,-5.1753 -2.6877,-7.1577 1.69912,-1.40651 2.68414,-3.49625 2.6877,-5.70198 -2.2e-4,-0.55526 -0.0629,-1.10875 -0.18654,-1.65003 -0.12333,-0.54185 -0.30739,-1.0681 -0.54829,-1.56889 -0.48368,-1.00355 -1.18718,-1.88525 -2.05829,-2.57968 -1.31364,-1.04789 -2.94412,-1.61874 -4.62452,-1.61901 z"
         id="path119" />
      <path
         id="path120"
         style="fill:#fffb12;fill-opacity:1;stroke-width:2.87192;stroke-linecap:square;stroke-linejoin:bevel;stroke-dasharray:none;paint-order:stroke markers fill"
         d="m 192.2455,37.85017 -6.08399,0.002 h -0.75857 l -18.58588,31.16451 h 6.08718 l 17.69407,-29.66941 0.002,0.002 0.002,-0.002 c 0.0617,0.0403 0.12302,0.0815 0.18345,0.12364 h 0.002 c 0.28849,0.23086 0.55932,0.48275 0.81025,0.75386 0.50472,0.54286 0.92525,1.1583 1.24751,1.82582 0.24108,0.50076 0.42505,1.02698 0.54857,1.56882 0.12364,0.54138 0.18623,1.09493 0.18654,1.65028 -0.003,0.0248 -0.006,0.0502 -0.009,0.0753 -0.009,0.46357 -0.0604,0.92531 -0.15524,1.37915 -0.04,0.17136 -0.0858,0.34126 -0.13789,0.50934 -0.0852,0.3138 -0.19088,0.62163 -0.31657,0.92155 -0.0725,0.17043 -0.15122,0.33838 -0.23643,0.50305 -0.15432,0.29345 -0.32819,0.57614 -0.52034,0.84632 -0.0914,0.13944 -0.18778,0.2761 -0.28849,0.40903 -0.29624,0.37151 -0.6273,0.7137 -0.98892,1.02187 l -0.036,0.0359 c 0.0155,0.0186 0.0279,0.0397 0.0421,0.0595 0.36549,0.42864 0.69718,0.88505 0.99202,1.36504 0.10721,0.1819 0.20916,0.36695 0.30553,0.5548 0.18623,0.33875 0.35406,0.68717 0.50311,1.0438 0.0871,0.2104 0.16764,0.42381 0.24139,0.63942 0.12581,0.37535 0.23085,0.7573 0.31498,1.14411 0.0483,0.19584 0.0911,0.39273 0.1286,0.59083 0.0936,0.55269 0.1444,1.11176 0.15184,1.67225 0.003,0.0279 0.006,0.0586 0.009,0.0877 -0.006,0.0595 -0.009,0.11899 -0.0155,0.17848 -0.006,0.54033 -0.0539,1.07938 -0.14099,1.6127 -0.0449,0.21319 -0.0961,0.42471 -0.15339,0.63471 -0.0793,0.37696 -0.17879,0.74946 -0.29778,1.11588 -0.0877,0.23302 -0.18345,0.46307 -0.28695,0.68959 -0.13262,0.3262 -0.28136,0.64577 -0.44506,0.95759 -0.13046,0.23179 -0.26959,0.45865 -0.41691,0.6802 -0.18034,0.28478 -0.37389,0.56078 -0.57989,0.82748 -0.16702,0.21072 -0.34145,0.41505 -0.52343,0.61278 -0.22838,0.25099 -0.4685,0.49093 -0.71937,0.71936 -0.19243,0.17694 -0.39097,0.34678 -0.59551,0.50937 -0.27951,0.21598 -0.56921,0.41854 -0.86829,0.60651 -0.20917,0.13851 -0.42289,0.26959 -0.64101,0.39335 -0.32121,0.16981 -0.65073,0.32376 -0.98734,0.46078 -0.21846,0.0992 -0.44005,0.19119 -0.66452,0.27579 -0.39072,0.12859 -0.78837,0.23457 -1.19111,0.31814 -0.18221,0.0493 -0.36559,0.0936 -0.55009,0.13325 -0.59281,0.10164 -1.19304,0.15431 -1.7945,0.15679 l -0.0124,0.002 c -0.0279,-0.002 -0.0564,-0.003 -0.0846,-0.006 0.0279,0.003 0.0555,0.006 0.083,0.009 h 0.002 6.09031 c -0.031,-0.003 -0.0607,-0.006 -0.0911,-0.009 0.031,0.002 0.0607,0.003 0.0911,0.006 6.01064,-9.9e-4 10.88276,-4.87381 10.88291,-10.88446 -5.3e-4,-2.63217 -0.95487,-5.17501 -2.68628,-7.15757 1.69847,-1.40672 2.68293,-3.49625 2.68628,-5.70161 -2.2e-4,-0.55535 -0.0629,-1.1089 -0.18654,-1.65028 -0.12302,-0.54178 -0.30647,-1.068 -0.54699,-1.56882 -0.48352,-1.00349 -1.18684,-1.88519 -2.05776,-2.57968 -1.31373,-1.04795 -2.9444,-1.61877 -4.62493,-1.61892 z" />
      <path
         id="path121"
         style="-inkscape-font-specification:'Poppins Bold';fill:#ffffff;fill-opacity:1;stroke-width:6.9797;stroke-linecap:round;stroke-linejoin:round;paint-order:stroke fill markers"
         d="m 176.6152,37.8497 c -2.83072,0 -5.41324,0.67144 -7.74785,2.01383 -2.30542,1.3424 -4.12962,3.2098 -5.47202,5.60276 -1.3424,2.36381 -2.01331,5.03427 -2.01331,8.01088 0,2.97663 0.67091,5.64656 2.01331,8.01037 1.3424,2.3638 3.1666,4.21697 5.47202,5.55935 2.33461,1.31324 4.91713,1.9699 7.74785,1.9699 3.32681,0 6.23057,-0.78781 8.71109,-2.36368 2.48053,-1.60504 4.28998,-3.86685 5.4281,-6.78511 h -4.77129 c -0.84628,1.83851 -2.07225,3.25405 -3.67729,4.24625 -1.57586,0.96302 -3.47271,1.44436 -5.69061,1.44436 -2.13033,0 -4.04194,-0.49609 -5.73454,-1.48828 -1.69258,-0.99222 -3.0202,-2.39301 -3.98322,-4.20233 -0.963,-1.83851 -1.44435,-3.96866 -1.44435,-6.39083 0,-2.45134 0.48135,-4.58202 1.44435,-6.39134 0.96302,-1.8385 2.29064,-3.25352 3.98322,-4.24573 1.6926,-0.99221 3.60421,-1.48828 5.73454,-1.48828 2.2179,0 4.11475,0.49607 5.69061,1.48828 0.03,0.0185 0.0576,0.0396 0.0873,0.0584 l 1.92546,-3.22823 c -2.25003,-1.20938 -4.81572,-1.82056 -7.7034,-1.82056 z m 7.7034,1.82056 c 0.044,0.0237 0.0901,0.0436 0.13384,0.0677 -0.0437,-0.024 -0.0874,-0.0482 -0.13125,-0.0718 z m 4.09484,3.34089 -2.43034,4.07468 h 4.77129 c -0.59573,-1.54279 -1.37743,-2.8997 -2.34095,-4.07468 z" />
    </g>
  </g>
</svg>
