<?xml version="1.0" encoding="UTF-8" standalone="no"?>
<!-- Created with Inkscape (http://www.inkscape.org/) -->

<svg
   width="41.83099mm"
   height="51.878849mm"
   viewBox="0 0 41.83099 51.878849"
   version="1.1"
   id="svg1"
   xml:space="preserve"
   xmlns="http://www.w3.org/2000/svg"
   xmlns:svg="http://www.w3.org/2000/svg"><defs
     id="defs1" /><g
     id="layer1"
     transform="translate(-211.76517,-31.632461)"><g
       id="g159"><path
         style="-inkscape-font-specification:'Poppins Bold';fill:#ffffff;fill-opacity:1;stroke-width:2.06692;stroke-linecap:round;stroke-linejoin:round;paint-order:stroke fill markers"
         d="m 217.27436,78.741003 q 0.79074,0.16852 1.27036,0.79072 0.47963,0.60925 0.47963,1.39999 0,1.14073 -0.8037,1.81479 -0.79073,0.66111 -2.21664,0.66111 h -4.23884 v -9.0999 h 4.09625 q 1.38701,0 2.16478,0.63519 0.79074,0.63517 0.79074,1.72405 0,0.80369 -0.42778,1.33516 -0.4148,0.53148 -1.1148,0.73889 z m -3.29255,-0.75185 h 1.45183 q 0.54444,0 0.82963,-0.23333 0.29814,-0.24629 0.29814,-0.71296 0,-0.46665 -0.29814,-0.71294 -0.28519,-0.24631 -0.82963,-0.24631 h -1.45183 z m 1.63331,3.62959 q 0.55741,0 0.85555,-0.2463 0.31111,-0.25925 0.31111,-0.73887 0,-0.47963 -0.32407,-0.75185 -0.31111,-0.27221 -0.86851,-0.27221 h -1.60739 v 2.00923 z m 11.51099,-1.94442 q 0,0.3111 -0.0389,0.64814 h -5.01661 q 0.0518,0.67406 0.42777,1.03702 0.38889,0.35 0.94629,0.35 0.82962,0 1.15369,-0.7 h 2.35924 q -0.18148,0.71296 -0.66111,1.28332 -0.46666,0.57037 -1.17962,0.89444 -0.71295,0.32407 -1.59443,0.32407 -1.06294,0 -1.89257,-0.45369 -0.82961,-0.45371 -1.29628,-1.29629 -0.46665,-0.84259 -0.46665,-1.97035 0,-1.12777 0.45369,-1.97035 0.46666,-0.84258 1.29628,-1.29628 0.82962,-0.45369 1.90553,-0.45369 1.04999,0 1.86665,0.44073 0.81666,0.44073 1.27036,1.2574 0.46666,0.81665 0.46666,1.90553 z m -2.26849,-0.58332 q 0,-0.57037 -0.38889,-0.90741 -0.38888,-0.33703 -0.97221,-0.33703 -0.5574,0 -0.94628,0.32407 -0.37593,0.32407 -0.46667,0.92037 z m 5.65177,-1.7111 q 0.38889,-0.59629 0.97221,-0.93332 0.58333,-0.35 1.29628,-0.35 v 2.34627 h -0.60925 q -0.82962,0 -1.24442,0.36296 -0.41482,0.35 -0.41482,1.24442 v 3.35738 h -2.21664 v -7.23325 h 2.21664 z m 7.73879,-1.28332 q 1.27037,0 2.02221,0.82963 0.7648,0.81665 0.7648,2.25552 v 4.22588 h -2.20367 v -3.92774 q 0,-0.72592 -0.37593,-1.12776 -0.37592,-0.40184 -1.01109,-0.40184 -0.63519,0 -1.01111,0.40184 -0.37592,0.40184 -0.37592,1.12776 v 3.92774 h -2.21664 v -7.23325 h 2.21664 v 0.95924 q 0.33704,-0.47962 0.9074,-0.75184 0.57037,-0.28518 1.28331,-0.28518 z m 3.88885,3.68144 q 0,-1.11481 0.4148,-1.95739 0.42778,-0.84258 1.1537,-1.29628 0.72592,-0.45369 1.62035,-0.45369 0.7648,0 1.33517,0.3111 0.58333,0.31111 0.89443,0.81666 v -1.02406 h 2.21665 v 7.23325 h -2.21665 v -1.02407 q -0.32407,0.50556 -0.90739,0.81666 -0.57036,0.31111 -1.33518,0.31111 -0.88146,0 -1.60738,-0.45369 -0.72592,-0.46667 -1.1537,-1.30925 -0.4148,-0.85554 -0.4148,-1.97035 z m 5.41845,0.0129 q 0,-0.82962 -0.46666,-1.30924 -0.4537,-0.47963 -1.1148,-0.47963 -0.66111,0 -1.12776,0.47963 -0.4537,0.46666 -0.4537,1.29628 0,0.82962 0.4537,1.3222 0.46665,0.47963 1.12776,0.47963 0.6611,0 1.1148,-0.47963 0.46666,-0.47962 0.46666,-1.30924 z m 6.04069,-5.97585 v 9.59248 h -2.21665 v -9.59248 z"
         id="path154"
         aria-label="Bernal&#10;" /><path
         style="-inkscape-font-specification:'Poppins Bold';fill:#ea4335;fill-opacity:1;stroke-width:1.24975;stroke-linecap:round;stroke-linejoin:round;paint-order:stroke fill markers"
         d="m 211.76517,68.421793 q 0,-0.79947 0.36054,-1.43434 0.36055,-0.64271 0.97974,-1.00326 0.62704,-0.36054 1.38732,-0.36054 0.89352,0 1.55974,0.43108 0.66623,0.43109 0.97191,1.22273 h -0.85433 q -0.22731,-0.4938 -0.6584,-0.76029 -0.42324,-0.26649 -1.01892,-0.26649 -0.57217,0 -1.02677,0.26649 -0.45461,0.26649 -0.71326,0.76029 -0.25864,0.48595 -0.25864,1.14433 0,0.65055 0.25864,1.14434 0.25865,0.48595 0.71326,0.75245 0.4546,0.26648 1.02677,0.26648 0.59568,0 1.01892,-0.25865 0.43109,-0.26649 0.6584,-0.76028 h 0.85433 q -0.30568,0.7838 -0.97191,1.21488 -0.66622,0.42325 -1.55974,0.42325 -0.76028,0 -1.38732,-0.35271 -0.61919,-0.36055 -0.97974,-0.99542 -0.36054,-0.63487 -0.36054,-1.43434 z m 8.19063,2.80598 q -0.60352,0 -1.09732,-0.27433 -0.48595,-0.27432 -0.76812,-0.77595 -0.27432,-0.50947 -0.27432,-1.17569 0,-0.65838 0.28216,-1.16001 0.29001,-0.50947 0.7838,-0.77596 0.49379,-0.27433 1.10515,-0.27433 0.61135,0 1.10514,0.27433 0.4938,0.26649 0.77596,0.76812 0.29,0.50163 0.29,1.16785 0,0.66622 -0.29784,1.17569 -0.29,0.50163 -0.79163,0.77595 -0.50163,0.27433 -1.11298,0.27433 z m 0,-0.62703 q 0.38405,0 0.72109,-0.18028 0.33703,-0.18027 0.54081,-0.54081 0.21162,-0.36055 0.21162,-0.87785 0,-0.51731 -0.20379,-0.87785 -0.20377,-0.36054 -0.53297,-0.53298 -0.3292,-0.18027 -0.71325,-0.18027 -0.39189,0 -0.72109,0.18027 -0.32136,0.17244 -0.5173,0.53298 -0.19595,0.36054 -0.19595,0.87785 0,0.52514 0.18811,0.88568 0.19594,0.36055 0.5173,0.54082 0.32136,0.17244 0.70542,0.17244 z m 5.23573,-3.81708 q 0.78379,0 1.26974,0.47812 0.48595,0.47027 0.48595,1.3638 v 2.53165 h -0.70541 v -2.42976 q 0,-0.64271 -0.32136,-0.97974 -0.32135,-0.34487 -0.87784,-0.34487 -0.56434,0 -0.90136,0.3527 -0.3292,0.35272 -0.3292,1.02678 v 2.37489 h -0.71325 v -4.29519 h 0.71325 v 0.61136 q 0.21162,-0.32919 0.57217,-0.50946 0.36838,-0.18028 0.80731,-0.18028 z m 3.79355,0.66623 v 2.53165 q 0,0.31351 0.13324,0.44676 0.13325,0.1254 0.46244,0.1254 h 0.52514 v 0.60353 h -0.64271 q -0.59568,0 -0.89353,-0.27432 -0.29784,-0.27433 -0.29784,-0.90137 v -2.53165 h -0.55649 v -0.58785 h 0.55649 v -1.08163 h 0.71326 v 1.08163 h 1.12082 v 0.58785 z m 1.7165,1.54407 q 0,-0.65838 0.26649,-1.15217 0.2665,-0.50163 0.72894,-0.77596 0.47027,-0.27433 1.04243,-0.27433 0.56433,0 0.97975,0.24298 0.41541,0.24298 0.61919,0.61136 v -0.7838 h 0.72109 v 4.29519 h -0.72109 v -0.79947 q -0.21162,0.37622 -0.63487,0.62704 -0.41541,0.24297 -0.9719,0.24297 -0.57217,0 -1.0346,-0.28216 -0.46244,-0.28217 -0.72894,-0.79164 -0.26649,-0.50946 -0.26649,-1.16001 z m 3.6368,0.008 q 0,-0.48595 -0.19595,-0.8465 -0.19595,-0.36054 -0.53298,-0.54865 -0.32919,-0.19595 -0.72892,-0.19595 -0.39974,0 -0.72893,0.18811 -0.32919,0.18811 -0.52514,0.54866 -0.19594,0.36054 -0.19594,0.84649 0,0.49379 0.19594,0.86217 0.19595,0.36055 0.52514,0.5565 0.32919,0.1881 0.72893,0.1881 0.39973,0 0.72892,-0.1881 0.33703,-0.19595 0.53298,-0.5565 0.19595,-0.36838 0.19595,-0.85433 z m 1.66165,-0.008 q 0,-0.65838 0.26649,-1.15217 0.26649,-0.50163 0.72892,-0.77596 0.47028,-0.27433 1.05029,-0.27433 0.50163,0 0.93271,0.23514 0.43109,0.2273 0.65839,0.60352 v -2.273 h 0.72108 v 5.80007 h -0.72108 v -0.8073 q -0.21163,0.38405 -0.62704,0.63487 -0.41541,0.24297 -0.9719,0.24297 -0.57217,0 -1.04245,-0.28216 -0.46243,-0.28217 -0.72892,-0.79164 -0.26649,-0.50946 -0.26649,-1.16001 z m 3.6368,0.008 q 0,-0.48595 -0.19595,-0.8465 -0.19595,-0.36054 -0.53298,-0.54865 -0.32919,-0.19595 -0.72893,-0.19595 -0.39973,0 -0.72892,0.18811 -0.32919,0.18811 -0.52515,0.54866 -0.19595,0.36054 -0.19595,0.84649 0,0.49379 0.19595,0.86217 0.19596,0.36055 0.52515,0.5565 0.32919,0.1881 0.72892,0.1881 0.39974,0 0.72893,-0.1881 0.33703,-0.19595 0.53298,-0.5565 0.19595,-0.36838 0.19595,-0.85433 z m 3.8014,2.22597 q -0.60352,0 -1.09731,-0.27433 -0.48596,-0.27432 -0.76812,-0.77595 -0.27433,-0.50947 -0.27433,-1.17569 0,-0.65838 0.28216,-1.16001 0.29002,-0.50947 0.7838,-0.77596 0.49379,-0.27433 1.10515,-0.27433 0.61135,0 1.10515,0.27433 0.49379,0.26649 0.77595,0.76812 0.29001,0.50162 0.29001,1.16785 0,0.66622 -0.29785,1.17569 -0.29,0.50163 -0.79163,0.77595 -0.50163,0.27433 -1.11298,0.27433 z m 0,-0.62704 q 0.38405,0 0.72109,-0.18027 0.33703,-0.18027 0.54082,-0.54081 0.21161,-0.36055 0.21161,-0.87785 0,-0.51731 -0.20377,-0.87785 -0.20379,-0.36055 -0.53298,-0.53298 -0.3292,-0.18027 -0.71326,-0.18027 -0.39189,0 -0.72108,0.18027 -0.32137,0.17243 -0.51731,0.53298 -0.19595,0.36054 -0.19595,0.87785 0,0.52514 0.18811,0.88568 0.19594,0.36055 0.51731,0.54082 0.32135,0.17243 0.70541,0.17243 z m 3.85625,-3.04111 q 0.18811,-0.36839 0.53298,-0.57217 0.35271,-0.20379 0.85434,-0.20379 v 0.73677 h -0.18812 q -1.1992,0 -1.1992,1.30109 v 2.3357 h -0.71325 v -4.29518 h 0.71325 z m 1.9438,1.43434 q 0,-0.65839 0.26649,-1.15217 0.26649,-0.50163 0.72893,-0.77596 0.47028,-0.27433 1.04244,-0.27433 0.56433,0 0.97974,0.24298 0.41542,0.24298 0.61919,0.61136 v -0.7838 h 0.7211 v 4.29518 h -0.7211 v -0.79946 q -0.21161,0.37622 -0.63487,0.62704 -0.4154,0.24297 -0.97189,0.24297 -0.57217,0 -1.03461,-0.28216 -0.46244,-0.28217 -0.72893,-0.79164 -0.26649,-0.50946 -0.26649,-1.16001 z m 3.63679,0.008 q 0,-0.48595 -0.19594,-0.8465 -0.19595,-0.36054 -0.53298,-0.54865 -0.32919,-0.19595 -0.72893,-0.19595 -0.39973,0 -0.72892,0.18811 -0.32919,0.1881 -0.52514,0.54866 -0.19595,0.36054 -0.19595,0.84649 0,0.49378 0.19595,0.86217 0.19595,0.36055 0.52514,0.5565 0.32919,0.1881 0.72892,0.1881 0.39974,0 0.72893,-0.1881 0.33703,-0.19595 0.53298,-0.5565 0.19594,-0.36839 0.19594,-0.85433 z"
         id="path155"
         aria-label="Contadora&#10;" /><path
         style="fill:#34a853;fill-opacity:1;stroke-width:2.87267;stroke-linecap:square;stroke-linejoin:bevel;paint-order:stroke markers fill"
         d="m 242.42626,31.635073 c 1.68022,4e-4 3.31051,0.57121 4.624,1.61901 0.87092,0.69449 1.57424,1.5762 2.05776,2.57968 0.24046,0.5007 0.42378,1.02676 0.54674,1.56839 0.12364,0.54147 0.18623,1.09512 0.18654,1.65053 -0.003,2.2053 -0.98777,4.29476 -2.68615,5.70145 1.73141,1.98262 2.68569,4.52552 2.68615,7.15773 -6e-5,6.01077 -4.87229,10.88368 -10.88306,10.88458 -0.031,-0.002 -0.0604,-0.003 -0.0908,-0.006 0.031,0.003 0.0604,0.006 0.0908,0.009 h 3.75326 c -0.031,-0.003 -0.0595,-0.006 -0.0892,-0.009 0.031,0.002 0.0595,0.003 0.0892,0.006 6.01117,-6e-5 10.88427,-4.87291 10.88461,-10.88408 -9e-4,-2.6324 -0.95577,-5.1753 -2.6877,-7.1577 1.69912,-1.40651 2.68414,-3.49625 2.6877,-5.70198 -2.2e-4,-0.55526 -0.0629,-1.10875 -0.18654,-1.65003 -0.12333,-0.54185 -0.30739,-1.0681 -0.54829,-1.56889 -0.48368,-1.00355 -1.18718,-1.88525 -2.05829,-2.57968 -1.31364,-1.04789 -2.94412,-1.61874 -4.62452,-1.61901 z"
         id="path156" /><path
         id="path157"
         style="fill:#1a73e8;fill-opacity:1;stroke-width:2.87192;stroke-linecap:square;stroke-linejoin:bevel;stroke-dasharray:none;paint-order:stroke markers fill"
         d="m 242.62871,31.632933 -6.08399,0.002 h -0.75857 l -18.58588,31.16451 h 6.08718 l 17.69407,-29.66941 0.002,0.002 0.002,-0.002 c 0.0617,0.0403 0.12302,0.0815 0.18345,0.12364 h 0.002 c 0.28849,0.23086 0.55932,0.48275 0.81025,0.75386 0.50472,0.54286 0.92525,1.1583 1.24751,1.82582 0.24108,0.50076 0.42505,1.02698 0.54857,1.56882 0.12364,0.54138 0.18623,1.09493 0.18654,1.65028 -0.003,0.0248 -0.006,0.0502 -0.009,0.0753 -0.009,0.46357 -0.0604,0.92531 -0.15524,1.37915 -0.04,0.17136 -0.0858,0.34126 -0.13789,0.50934 -0.0852,0.3138 -0.19088,0.62163 -0.31657,0.92155 -0.0725,0.17043 -0.15122,0.33838 -0.23643,0.50305 -0.15432,0.29345 -0.32819,0.57614 -0.52034,0.84632 -0.0914,0.13944 -0.18778,0.2761 -0.28849,0.40903 -0.29624,0.37151 -0.6273,0.7137 -0.98892,1.02187 l -0.036,0.0359 c 0.0155,0.0186 0.0279,0.0397 0.0421,0.0595 0.36549,0.42864 0.69718,0.88505 0.99202,1.36504 0.10721,0.1819 0.20916,0.36695 0.30553,0.5548 0.18623,0.33875 0.35406,0.68717 0.50311,1.0438 0.0871,0.2104 0.16764,0.42381 0.24139,0.63942 0.12581,0.37535 0.23085,0.7573 0.31498,1.14411 0.0483,0.19584 0.0911,0.39273 0.1286,0.59083 0.0936,0.55269 0.1444,1.11176 0.15184,1.67225 0.003,0.0279 0.006,0.0586 0.009,0.0877 -0.006,0.0595 -0.009,0.11899 -0.0155,0.17848 -0.006,0.54033 -0.0539,1.07938 -0.14099,1.6127 -0.0449,0.21319 -0.0961,0.42471 -0.15339,0.63471 -0.0793,0.37696 -0.17879,0.74946 -0.29778,1.11588 -0.0877,0.23302 -0.18345,0.46307 -0.28695,0.68959 -0.13262,0.3262 -0.28136,0.64577 -0.44506,0.95759 -0.13046,0.23179 -0.26959,0.45865 -0.41691,0.6802 -0.18034,0.28478 -0.37389,0.56078 -0.57989,0.82748 -0.16702,0.21072 -0.34145,0.41505 -0.52343,0.61278 -0.22838,0.25099 -0.4685,0.49093 -0.71937,0.71936 -0.19243,0.17694 -0.39097,0.34678 -0.59551,0.50937 -0.27951,0.21598 -0.56921,0.41854 -0.86829,0.60651 -0.20917,0.13851 -0.42289,0.26959 -0.64101,0.39335 -0.32121,0.16981 -0.65073,0.32376 -0.98734,0.46078 -0.21846,0.0992 -0.44005,0.19119 -0.66452,0.27579 -0.39072,0.12859 -0.78837,0.23457 -1.19111,0.31814 -0.18221,0.0493 -0.36559,0.0936 -0.55009,0.13325 -0.59281,0.10164 -1.19304,0.15431 -1.7945,0.15679 l -0.0124,0.002 c -0.0279,-0.002 -0.0564,-0.003 -0.0846,-0.006 0.0279,0.003 0.0555,0.006 0.083,0.009 h 0.002 6.09031 c -0.031,-0.003 -0.0607,-0.006 -0.0911,-0.009 0.031,0.002 0.0607,0.003 0.0911,0.006 6.01064,-9.9e-4 10.88276,-4.87381 10.88291,-10.88446 -5.3e-4,-2.63217 -0.95487,-5.17501 -2.68628,-7.15757 1.69847,-1.40672 2.68293,-3.49625 2.68628,-5.70161 -2.2e-4,-0.55535 -0.0629,-1.1089 -0.18654,-1.65028 -0.12302,-0.54178 -0.30647,-1.068 -0.54699,-1.56882 -0.48352,-1.00349 -1.18684,-1.88519 -2.05776,-2.57968 -1.31373,-1.04795 -2.9444,-1.61877 -4.62493,-1.61892 z" /><path
         id="path158"
         style="-inkscape-font-specification:'Poppins Bold';fill:#fbbc04;fill-opacity:1;stroke-width:6.9797;stroke-linecap:round;stroke-linejoin:round;paint-order:stroke fill markers"
         d="m 226.99841,31.632463 c -2.83072,0 -5.41324,0.67144 -7.74785,2.01383 -2.30542,1.3424 -4.12962,3.2098 -5.47202,5.60276 -1.3424,2.36381 -2.01331,5.03427 -2.01331,8.01088 0,2.97663 0.67091,5.64656 2.01331,8.01037 1.3424,2.3638 3.1666,4.21697 5.47202,5.55935 2.33461,1.31324 4.91713,1.9699 7.74785,1.9699 3.32681,0 6.23057,-0.78781 8.71109,-2.36368 2.48053,-1.60504 4.28998,-3.86685 5.4281,-6.78511 h -4.77129 c -0.84628,1.83851 -2.07225,3.25405 -3.67729,4.24625 -1.57586,0.96302 -3.47271,1.44436 -5.69061,1.44436 -2.13033,0 -4.04194,-0.49609 -5.73454,-1.48828 -1.69258,-0.99222 -3.0202,-2.39301 -3.98322,-4.20233 -0.963,-1.83851 -1.44435,-3.96866 -1.44435,-6.39083 0,-2.45134 0.48135,-4.58202 1.44435,-6.39134 0.96302,-1.8385 2.29064,-3.25352 3.98322,-4.24573 1.6926,-0.99221 3.60421,-1.48828 5.73454,-1.48828 2.2179,0 4.11475,0.49607 5.69061,1.48828 0.03,0.0185 0.0576,0.0396 0.0873,0.0584 l 1.92546,-3.22823 c -2.25003,-1.20938 -4.81572,-1.82056 -7.7034,-1.82056 z m 7.7034,1.82056 c 0.044,0.0237 0.0901,0.0436 0.13384,0.0677 -0.0437,-0.024 -0.0874,-0.0482 -0.13125,-0.0718 z m 4.09484,3.34089 -2.43034,4.07468 h 4.77129 c -0.59573,-1.54279 -1.37743,-2.8997 -2.34095,-4.07468 z" /></g></g></svg>
