<?xml version="1.0" encoding="UTF-8" standalone="no"?>
<!-- Created with Inkscape (http://www.inkscape.org/) -->

<svg
   width="41.830875mm"
   height="31.167082mm"
   viewBox="0 0 41.830875 31.167082"
   version="1.1"
   id="svg1"
   xml:space="preserve"
   xmlns="http://www.w3.org/2000/svg"
   xmlns:svg="http://www.w3.org/2000/svg"><defs
     id="defs1" /><g
     id="layer1"
     transform="translate(-422.59999,-36.100971)"><g
       id="g184"
       transform="translate(49.962327,-30.782477)"><path
         id="path185"
         style="color:#000000;fill:#ffffff;fill-opacity:0.788235;stroke-linecap:round;stroke-linejoin:round;-inkscape-stroke:none;paint-order:stroke fill markers"
         d="m 360.74321,128.01481 c -3.14831,0 -6.10561,0.76227 -8.74417,2.27945 a 0.50005,0.50005 0 0 0 -0.01,0.006 c -10e-4,7.3e-4 -0.003,0.001 -0.004,0.002 l -0.004,0.004 c -2.56394,1.49493 -4.62164,3.61652 -6.11901,6.23838 -9.2e-4,0.002 -0.003,0.002 -0.004,0.004 a 0.50005,0.50005 0 0 0 -0.078,0.10336 0.50005,0.50005 0 0 0 0,0.002 c -1.51753,2.67622 -2.26963,5.71364 -2.26963,8.98809 0,3.27834 0.75425,6.32156 2.27532,8.99996 1.04004,1.83135 2.43998,3.30542 3.9982,4.58215 l -0.55655,0.9338 a 0.50005,0.50005 0 0 0 0,0.002 c -0.78101,1.31184 0.19203,3.02338 1.71876,3.02358 h 6.08593 a 0.50005,0.50005 0 0 0 0.14263,-0.0212 c 0.19484,-0.0583 0.35743,-0.18391 0.52503,-0.29714 0.97584,0.1682 1.97559,0.31832 3.04322,0.31832 1.7938,0 3.47331,-0.27862 5.07825,-0.709 0.1448,0.2173 0.26077,0.45867 0.48007,0.60565 a 0.50005,0.50005 0 0 0 0.22479,0.0816 c 3.3e-4,4e-5 0.09,0.002 0.0858,0.002 -0.004,2.7e-4 -0.0708,-4e-5 -0.0703,0 0.014,0.002 0.0297,0.004 0.0605,0.008 a 0.50005,0.50005 0 0 0 0.0294,0.002 c 0.0128,7e-4 0.0264,0.002 0.0393,0.002 0.005,4.2e-4 0.009,-3.9e-4 0.0134,0 0.008,2.2e-4 0.0161,0.002 0.0238,0.002 0.0353,0.003 0.0701,0.005 0.10542,0.006 a 0.50005,0.50005 0 0 0 0.01,0 h 0.002 6.09007 3.54087 a 0.50005,0.50005 0 0 0 0.004,-0.002 0.50005,0.50005 0 0 0 0.008,0 c 7.08808,-0.006 12.87271,-5.79495 12.87312,-12.88448 -8.8e-4,-2.56729 -0.93719,-4.95427 -2.33784,-7.03523 1.36704,-1.63615 2.33427,-3.6095 2.33784,-5.82238 v -0.002 a 0.50005,0.50005 0 0 0 0,-5.2e-4 0.50005,0.50005 0 0 0 0,-5.1e-4 0.50005,0.50005 0 0 0 0,-5.2e-4 0.50005,0.50005 0 0 0 0,-5.2e-4 c -2.6e-4,-0.66822 -0.084,-1.33077 -0.22479,-1.98231 l -0.008,-0.0822 c -0.002,-0.009 -0.002,-0.018 -0.004,-0.0269 a 0.50005,0.50005 0 0 0 0,-5.2e-4 0.50005,0.50005 0 0 0 0,-5.2e-4 0.50005,0.50005 0 0 0 0,-5.1e-4 0.50005,0.50005 0 0 0 0,-5.2e-4 c -0.15662,-0.68747 -0.38963,-1.35553 -0.69505,-1.99058 a 0.50005,0.50005 0 0 0 -0.002,-0.002 c -0.61367,-1.27327 -1.50691,-2.39188 -2.61173,-3.27319 -1.66752,-1.33016 -3.73971,-2.05637 -5.87303,-2.05672 h -3.51141 a 0.50005,0.50005 0 0 0 -0.004,0 0.50005,0.50005 0 0 0 -0.004,0 0.50005,0.50005 0 0 0 -0.002,0 0.50005,0.50005 0 0 0 -0.002,0 0.50005,0.50005 0 0 0 -0.002,0 0.50005,0.50005 0 0 0 -0.006,0 0.50005,0.50005 0 0 0 -0.004,0 0.50005,0.50005 0 0 0 -0.0155,-0.002 l -6.0818,0.002 h -0.76016 c -0.70251,3.4e-4 -1.35406,0.36963 -1.71463,0.97255 a 0.50005,0.50005 0 0 0 -0.002,0 l -0.24598,0.41444 c -2.09337,-0.83953 -4.34306,-1.39061 -6.82439,-1.39061 z" /><g
         id="g186"
         transform="translate(26.97129,-62.274612)"><path
           style="fill:#34a853;fill-opacity:1;stroke-width:2.87267;stroke-linecap:square;stroke-linejoin:bevel;paint-order:stroke markers fill"
           d="m 376.32739,129.16067 c 1.68022,4e-4 3.31051,0.57121 4.624,1.619 0.87092,0.69449 1.57424,1.5762 2.05776,2.57968 0.24046,0.5007 0.42378,1.02676 0.54674,1.56839 0.12364,0.54147 0.18623,1.09512 0.18654,1.65053 -0.003,2.2053 -0.98777,4.29476 -2.68615,5.70145 1.73141,1.98262 2.68569,4.52552 2.68615,7.15773 -6e-5,6.01077 -4.87229,10.88368 -10.88306,10.88458 -0.031,-0.002 -0.0604,-0.003 -0.0908,-0.006 0.031,0.003 0.0604,0.006 0.0908,0.009 h 3.75326 c -0.031,-0.003 -0.0595,-0.006 -0.0892,-0.009 0.031,0.002 0.0595,0.003 0.0892,0.006 6.01117,-6e-5 10.88427,-4.87291 10.88461,-10.88408 -9e-4,-2.6324 -0.95577,-5.1753 -2.6877,-7.1577 1.69912,-1.40651 2.68414,-3.49625 2.6877,-5.70198 -2.2e-4,-0.55526 -0.0629,-1.10875 -0.18654,-1.65003 -0.12333,-0.54185 -0.30739,-1.0681 -0.54829,-1.56889 -0.48368,-1.00355 -1.18718,-1.88525 -2.05829,-2.57968 -1.31364,-1.04788 -2.94412,-1.61873 -4.62452,-1.619 z"
           id="path164" /><path
           id="path165"
           style="fill:#1a73e8;fill-opacity:1;stroke-width:2.87192;stroke-linecap:square;stroke-linejoin:bevel;stroke-dasharray:none;paint-order:stroke markers fill"
           d="m 376.52984,129.15853 -6.08399,0.002 h -0.75857 l -18.58588,31.1645 h 6.08718 l 17.69407,-29.66941 0.002,0.002 0.002,-0.002 c 0.0617,0.0403 0.12302,0.0815 0.18345,0.12364 h 0.002 c 0.28849,0.23086 0.55932,0.48275 0.81025,0.75386 0.50472,0.54286 0.92525,1.1583 1.24751,1.82582 0.24108,0.50076 0.42505,1.02698 0.54857,1.56882 0.12364,0.54138 0.18623,1.09493 0.18654,1.65028 -0.003,0.0248 -0.006,0.0502 -0.009,0.0753 -0.009,0.46357 -0.0604,0.92531 -0.15524,1.37915 -0.04,0.17136 -0.0858,0.34126 -0.13789,0.50934 -0.0852,0.3138 -0.19088,0.62163 -0.31657,0.92155 -0.0725,0.17043 -0.15122,0.33838 -0.23643,0.50305 -0.15432,0.29345 -0.32819,0.57614 -0.52034,0.84632 -0.0914,0.13944 -0.18778,0.2761 -0.28849,0.40903 -0.29624,0.37151 -0.6273,0.7137 -0.98892,1.02187 l -0.036,0.0359 c 0.0155,0.0186 0.0279,0.0397 0.0421,0.0595 0.36549,0.42864 0.69718,0.88505 0.99202,1.36504 0.10721,0.1819 0.20916,0.36695 0.30553,0.5548 0.18623,0.33875 0.35406,0.68717 0.50311,1.0438 0.0871,0.2104 0.16764,0.42381 0.24139,0.63942 0.12581,0.37535 0.23085,0.7573 0.31498,1.14411 0.0483,0.19584 0.0911,0.39273 0.1286,0.59083 0.0936,0.55269 0.1444,1.11176 0.15184,1.67225 0.003,0.0279 0.006,0.0586 0.009,0.0877 -0.006,0.0595 -0.009,0.11899 -0.0155,0.17848 -0.006,0.54033 -0.0539,1.07938 -0.14099,1.6127 -0.0449,0.21319 -0.0961,0.42471 -0.15339,0.63471 -0.0793,0.37696 -0.17879,0.74946 -0.29778,1.11588 -0.0877,0.23302 -0.18345,0.46307 -0.28695,0.68959 -0.13262,0.3262 -0.28136,0.64577 -0.44506,0.95759 -0.13046,0.23179 -0.26959,0.45865 -0.41691,0.6802 -0.18034,0.28478 -0.37389,0.56078 -0.57989,0.82748 -0.16702,0.21072 -0.34145,0.41505 -0.52343,0.61278 -0.22838,0.25099 -0.4685,0.49093 -0.71937,0.71936 -0.19243,0.17694 -0.39097,0.34678 -0.59551,0.50937 -0.27951,0.21598 -0.56921,0.41854 -0.86829,0.60651 -0.20917,0.13851 -0.42289,0.26959 -0.64101,0.39335 -0.32121,0.16981 -0.65073,0.32376 -0.98734,0.46078 -0.21846,0.0992 -0.44005,0.19119 -0.66452,0.27579 -0.39072,0.12859 -0.78837,0.23457 -1.19111,0.31814 -0.18221,0.0493 -0.36559,0.0936 -0.55009,0.13325 -0.59281,0.10164 -1.19304,0.15431 -1.7945,0.15679 l -0.0124,0.002 c -0.0279,-0.002 -0.0564,-0.003 -0.0846,-0.006 0.0279,0.003 0.0555,0.006 0.083,0.009 h 0.002 6.09031 c -0.031,-0.003 -0.0607,-0.006 -0.0911,-0.009 0.031,0.002 0.0607,0.003 0.0911,0.006 6.01064,-9.9e-4 10.88276,-4.87381 10.88291,-10.88446 -5.3e-4,-2.63217 -0.95487,-5.17501 -2.68628,-7.15757 1.69847,-1.40672 2.68293,-3.49625 2.68628,-5.70161 -2.2e-4,-0.55535 -0.0629,-1.1089 -0.18654,-1.65028 -0.12302,-0.54178 -0.30647,-1.068 -0.54699,-1.56882 -0.48352,-1.00349 -1.18684,-1.88519 -2.05776,-2.57968 -1.31373,-1.04794 -2.9444,-1.61876 -4.62493,-1.61891 z" /><path
           id="path166"
           style="-inkscape-font-specification:'Poppins Bold';fill:#fbbc04;fill-opacity:1;stroke-width:6.9797;stroke-linecap:round;stroke-linejoin:round;paint-order:stroke fill markers"
           d="m 360.89954,129.15806 c -2.83072,0 -5.41324,0.67144 -7.74785,2.01382 -2.30542,1.3424 -4.12962,3.2098 -5.47202,5.60276 -1.3424,2.36381 -2.01331,5.03427 -2.01331,8.01088 0,2.97663 0.67091,5.64656 2.01331,8.01037 1.3424,2.3638 3.1666,4.21697 5.47202,5.55935 2.33461,1.31324 4.91713,1.9699 7.74785,1.9699 3.32681,0 6.23057,-0.78781 8.71109,-2.36368 2.48053,-1.60504 4.28998,-3.86685 5.4281,-6.78511 h -4.77129 c -0.84628,1.83851 -2.07225,3.25405 -3.67729,4.24625 -1.57586,0.96302 -3.47271,1.44436 -5.69061,1.44436 -2.13033,0 -4.04194,-0.49609 -5.73454,-1.48828 -1.69258,-0.99222 -3.0202,-2.39301 -3.98322,-4.20233 -0.963,-1.83851 -1.44435,-3.96866 -1.44435,-6.39083 0,-2.45134 0.48135,-4.58202 1.44435,-6.39134 0.96302,-1.8385 2.29064,-3.25352 3.98322,-4.24573 1.6926,-0.99221 3.60421,-1.48828 5.73454,-1.48828 2.2179,0 4.11475,0.49607 5.69061,1.48828 0.03,0.0185 0.0576,0.0396 0.0873,0.0584 l 1.92546,-3.22823 c -2.25003,-1.20937 -4.81572,-1.82055 -7.7034,-1.82055 z m 7.7034,1.82055 c 0.044,0.0237 0.0901,0.0436 0.13384,0.0677 -0.0437,-0.024 -0.0874,-0.0482 -0.13125,-0.0718 z m 4.09484,3.34089 -2.43034,4.07468 h 4.77129 c -0.59573,-1.54279 -1.37743,-2.8997 -2.34095,-4.07468 z" /></g></g></g></svg>
